HIERARCHY
ROOT Hips
{
  OFFSET 50.7806 86.6096 13.6375
  CHANNELS 6 Xposition Yposition Zposition Zrotation Xrotation Yrotation
  JOINT spine
  {
    OFFSET 0 6.84637 0.3937
    CHANNELS 3 Zrotation Xrotation Yrotation
    JOINT spine1
    {
      OFFSET 0 9.49621 0
      CHANNELS 3 Zrotation Xrotation Yrotation
      JOINT spine2
      {
        OFFSET 0 9.09909 0
        CHANNELS 3 Zrotation Xrotation Yrotation
        JOINT Neck
        {
          OFFSET 0 23.3612 1.11378
          CHANNELS 3 Zrotation Xrotation Yrotation
          JOINT Head
          {
            OFFSET 0 7.05802 0
            CHANNELS 3 Zrotation Xrotation Yrotation
            End Site
            {
              OFFSET 0 17.0844 -5.63419
            }
          }
        }
        JOINT RightShoulder
        {
          OFFSET -3.83136 9.82631 -0.533491
          CHANNELS 3 Zrotation Xrotation Yrotation
          JOINT RightArm
          {
            OFFSET 0 12.8881 0
            CHANNELS 3 Zrotation Xrotation Yrotation
            JOINT RightArmRoll
            {
              OFFSET 0 6.50617 0
              CHANNELS 3 Zrotation Xrotation Yrotation
              JOINT RightForeArm
              {
                OFFSET 0 18.9501 0
                CHANNELS 3 Zrotation Xrotation Yrotation
                JOINT RightForeArmRoll
                {
                  OFFSET 0 7.30092 0
                  CHANNELS 3 Zrotation Xrotation Yrotation
                  JOINT RightHand
                  {
                    OFFSET 0 14.6514 0
                    CHANNELS 3 Zrotation Xrotation Yrotation
                    End Site
                    {
                      OFFSET 0 0 0
                    }
                  }
                }
              }
            }
          }
        }
        JOINT LeftShoulder
        {
          OFFSET 3.83136 9.82631 -0.533491
          CHANNELS 3 Zrotation Xrotation Yrotation
          JOINT LeftArm
          {
            OFFSET 0 12.8881 0
            CHANNELS 3 Zrotation Xrotation Yrotation
            JOINT LeftArmRoll
            {
              OFFSET 0 6.50617 0
              CHANNELS 3 Zrotation Xrotation Yrotation
              JOINT LeftForeArm
              {
                OFFSET 0 18.9501 0
                CHANNELS 3 Zrotation Xrotation Yrotation
                JOINT LeftForeArmRoll
                {
                  OFFSET 0 7.30092 0
                  CHANNELS 3 Zrotation Xrotation Yrotation
                  JOINT LeftHand
                  {
                    OFFSET 0 14.6514 0
                    CHANNELS 3 Zrotation Xrotation Yrotation
                    End Site
                    {
                      OFFSET 0 0 0
                    }
                  }
                }
              }
            }
          }
        }
      }
    }
  }
  JOINT RightUpLeg
  {
    OFFSET -6.06837 -1.11278 -0.933477
    CHANNELS 3 Zrotation Xrotation Yrotation
    JOINT RightUpLegRoll
    {
      OFFSET 0 17.1796 0
      CHANNELS 3 Zrotation Xrotation Yrotation
      JOINT RightLeg
      {
        OFFSET 0 -21.2743 0
        CHANNELS 3 Zrotation Xrotation Yrotation
        JOINT RightLegRoll
        {
          OFFSET 0 21.3439 0
          CHANNELS 3 Zrotation Xrotation Yrotation
          JOINT RightFoot
          {
            OFFSET 0 17.7652 0
            CHANNELS 3 Zrotation Xrotation Yrotation
            JOINT RightToeBase
            {
              OFFSET 0 14.8508 0
              CHANNELS 3 Zrotation Xrotation Yrotation
              End Site
              {
                OFFSET 0.0062947 7.19213 -0.829005
              }
            }
          }
        }
      }
    }
  }
  JOINT LeftUpLeg
  {
    OFFSET 6.06837 -1.11278 -0.933477
    CHANNELS 3 Zrotation Xrotation Yrotation
    JOINT LeftUpLegRoll
    {
      OFFSET 0 17.1797 0
      CHANNELS 3 Zrotation Xrotation Yrotation
      JOINT LeftLeg
      {
        OFFSET 0 21.2742 0
        CHANNELS 3 Zrotation Xrotation Yrotation
        JOINT LeftLegRoll
        {
          OFFSET 0 21.5412 0
          CHANNELS 3 Zrotation Xrotation Yrotation
          JOINT LeftFoot
          {
            OFFSET 0 17.5679 0
            CHANNELS 3 Zrotation Xrotation Yrotation
            JOINT LeftToeBase
            {
              OFFSET 0 14.8508 0
              CHANNELS 3 Zrotation Xrotation Yrotation
              End Site
              {
                OFFSET -0.0282102 7.19214 -0.829005
              }
            }
          }
        }
      }
    }
  }
}
MOTION
Frames: 10
Frame Time: 0.00208333
51.885 80.4567 14.9806 0.687779 10.2942 1.88599 1.64928 -1.88382 0.772385 3.31298 0.253254 1.3845 3.29775 1.89654 1.32952 -17.0764 -12.5287 -6.53063 14.4068 6.84341 -7.49359 52.1159 -4.96628 -2.59719 115.179 27.6883 -6.84726 -6.11125e-006 -3.76368e-006 -1.05153e-005 22.881 5.32622 0.190383 5.58698e-006 -2.09767e-006 -3.00757 8.02889 -4.95144 0.697687 -70.2366 -9.99055 6.24397 -106.253 28.4759 3.76625 -2.64206e-006 3.1651e-006 -4.2912e-006 -28.9079 19.1577 4.17836 4.70774e-007 -1.3054e-006 3 -8.0289 -4.95142 -0.697688 173.601 35.3224 9.12168 180 7.01557e-015 178.968 165.889 50.3096 -173.402 4.71947e-006 -7.32591e-006 0.947142 -95.3321 82.1594 89.5155 8.13369 25.2361 -3.48644 -178.168 34.5528 -3.80401 4.54188e-006 -4.6773e-006 -0.987404 -10.2896 -52.6001 -4.94795 1.96154e-006 -5.43847e-006 -0.916022 94.58 82.6785 -91.5929 -8.34388 28.2029 3.58486 
51.8539 80.5293 14.9978 0.69109 10.2449 1.90139 1.63532 -1.87871 0.771653 3.28502 0.263321 1.38423 3.2698 1.90664 1.32972 -17.0215 -12.7144 -6.57537 14.3596 7.05804 -7.53549 51.8863 -5.01125 -2.61237 115.553 27.5103 -7.45083 -6.11125e-006 -3.76368e-006 -1.05153e-005 22.95 5.92611 0.100045 5.58698e-006 -2.09767e-006 -3.00757 8.02889 -4.95144 0.697687 -69.9053 -9.99567 6.2454 -106.661 28.3799 4.62343 -2.64206e-006 3.1651e-006 -4.2912e-006 -29.1307 19.9491 4.40447 4.70774e-007 -1.3054e-006 3 -8.0289 -4.95142 -0.697688 173.563 35.1725 9.17018 180 7.01558e-015 178.97 165.878 50.1255 -173.427 4.71947e-006 -7.32592e-006 0.940221 -94.6779 82.1568 88.8449 8.13372 25.2361 -3.48645 -178.079 34.4467 -3.89211 4.54188e-006 -4.6773e-006 -0.979014 -10.3447 -52.4625 -4.96734 1.96154e-006 -5.43847e-006 -0.900074 93.5701 82.6798 -90.581 -8.34714 28.247 3.58645 
51.8529 80.5673 15.0134 0.693858 10.1972 1.916 1.62162 -1.87502 0.770694 3.2576 0.270565 1.38353 3.24238 1.91391 1.32948 -16.9712 -12.8942 -6.61679 14.3174 7.2692 -7.57466 51.6577 -5.05479 -2.62682 115.92 27.3215 -8.0669 -6.11125e-006 -3.76368e-006 -1.05153e-005 23.0109 6.53932 0.0117047 5.58698e-006 -2.09767e-006 -3.00757 8.02889 -4.95144 0.697687 -69.5776 -10.0004 6.24669 -107.051 28.2729 5.48089 -2.64206e-006 3.1651e-006 -4.2912e-006 -29.3398 20.7281 4.62139 4.70774e-007 -1.3054e-006 3 -8.0289 -4.95142 -0.697688 173.529 35.0146 9.21011 180 7.01558e-015 178.972 165.871 49.9223 -173.457 4.71947e-006 -7.32592e-006 0.932512 -93.9569 82.1531 88.1074 8.13374 25.2361 -3.48646 -177.994 34.3288 -3.97515 4.54188e-006 -4.6773e-006 -0.970403 -10.398 -52.3016 -4.98328 1.96154e-006 -5.43847e-006 -0.883472 92.5253 82.6785 -89.5321 -8.35 28.2858 3.5878 
51.8681 80.6471 15.0332 0.696042 10.1516 1.92958 1.60829 -1.87295 0.769436 3.23091 0.274557 1.38223 3.21571 1.91793 1.32862 -16.9267 -13.0667 -6.654 14.2815 7.47534 -7.61029 51.4308 -5.09599 -2.64001 116.28 27.1232 -8.69166 -6.11125e-006 -3.76368e-006 -1.05153e-005 23.0605 7.1613 -0.0734197 5.58698e-006 -2.09767e-006 -3.00757 8.02889 -4.95144 0.697687 -69.2556 -10.0047 6.24777 -107.422 28.157 6.33314 -2.64206e-006 3.1651e-006 -4.2912e-006 -29.5292 21.4853 4.82488 4.70774e-007 -1.3054e-006 3 -8.0289 -4.95142 -0.697688 173.502 34.8491 9.24037 180 7.01559e-015 178.974 165.869 49.6992 -173.492 4.71947e-006 -7.32592e-006 0.924026 -93.1652 82.1479 87.2994 8.13377 25.2361 -3.48647 -177.911 34.1991 -4.05211 4.54188e-006 -4.6773e-006 -0.961628 -10.4487 -52.1165 -4.99512 1.96154e-006 -5.43847e-006 -0.866314 91.4442 82.6743 -88.4447 -8.35243 28.3191 3.5889 
51.8686 80.6868 15.0471 0.697603 10.1088 1.94188 1.59542 -1.87272 0.767803 3.20516 0.274872 1.38018 3.18997 1.91827 1.32701 -16.8891 -13.2301 -6.68609 14.2532 7.67493 -7.64155 51.2065 -5.1339 -2.65139 116.633 26.9172 -9.32134 -6.11125e-006 -3.76368e-006 -1.05153e-005 23.0957 7.7875 -0.154099 5.58698e-006 -2.09767e-006 -3.00757 8.02889 -4.95144 0.697687 -68.9414 -10.0084 6.2486 -107.771 28.0345 7.17478 -2.64206e-006 3.1651e-006 -4.2912e-006 -29.6927 22.2117 5.01055 4.70774e-007 -1.3054e-006 3 -8.0289 -4.95142 -0.697688 173.481 34.6765 9.25988 180 7.01559e-015 178.977 165.871 49.4554 -173.532 4.71947e-006 -7.32592e-006 0.914779 -92.2994 82.1409 86.4175 8.1338 25.236 -3.48648 -177.834 34.0578 -4.12198 4.54188e-006 -4.6773e-006 -0.952746 -10.4961 -51.9062 -5.00222 1.96154e-006 -5.43847e-006 -0.848695 90.325 82.6669 -87.3169 -8.35441 28.347 3.58973 
51.8229 80.7839 15.1137 0.698497 10.0693 1.95265 1.58311 -1.87454 0.765722 3.18054 0.271085 1.37724 3.16537 1.91451 1.32448 -16.8596 -13.3828 -6.71212 14.2339 7.86642 -7.66761 50.9855 -5.16762 -2.66041 116.978 26.7051 -9.95224 -6.11125e-006 -3.76368e-006 -1.05153e-005 23.1132 8.4134 -0.229093 5.58698e-006 -2.09767e-006 -3.00757 8.02889 -4.95144 0.697687 -68.6371 -10.0112 6.24911 -108.096 27.9079 8.00049 -2.64206e-006 3.1651e-006 -4.2912e-006 -29.8238 22.898 5.17378 4.70774e-007 -1.3054e-006 3 -8.0289 -4.95142 -0.697688 173.467 34.497 9.26755 180 7.0156e-015 178.98 165.879 49.19 -173.578 4.71947e-006 -7.32592e-006 0.904782 -91.3559 82.1316 85.4584 8.13382 25.236 -3.48649 -177.761 33.9049 -4.18373 4.54188e-006 -4.6773e-006 -0.943814 -10.5394 -51.6696 -5.004 1.96154e-006 -5.43848e-006 -0.830712 89.1664 82.6559 -86.1472 -8.35594 28.3693 3.59028 
51.8347 80.8101 15.095 0.69797 10.0324 1.96258 1.57127 -1.87848 0.763114 3.15687 0.263033 1.37327 3.14173 1.90648 1.32089 -16.8366 -13.5269 -6.73228 14.2219 8.05301 -7.68872 50.7661 -5.198 -2.66738 117.313 26.4828 -10.6024 -6.11125e-006 -3.76368e-006 -1.05153e-005 23.1222 9.05625 -0.303664 5.58698e-006 -2.09767e-006 -3.00757 8.02889 -4.95144 0.697687 -68.3388 -10.0135 6.24935 -108.394 27.775 8.82577 -2.64206e-006 3.1651e-006 -4.2912e-006 -29.9313 23.5596 5.32085 4.70774e-007 -1.3054e-006 3 -8.0289 -4.95142 -0.697688 173.457 34.3101 9.26702 180 7.01561e-015 178.984 165.884 48.9054 -173.624 4.71947e-006 -7.32592e-006 0.893139 -90.3538 82.1193 84.4383 8.13385 25.236 -3.4865 -177.686 33.7379 -4.2436 4.54188e-006 -4.6773e-006 -0.933678 -10.5909 -51.4058 -5.00755 1.96154e-006 -5.43848e-006 -0.810908 88.0093 82.641 -84.9733 -8.35671 28.382 3.59038 
51.7468 80.9507 15.1467 0.695515 9.99666 1.97246 1.55973 -1.88436 0.760006 3.1338 0.251092 1.36832 3.1187 1.89456 1.31632 -16.818 -13.6656 -6.7477 14.2144 8.23884 -7.70599 50.546 -5.22672 -2.67313 117.637 26.2454 -11.2888 -6.11125e-006 -3.76368e-006 -1.05153e-005 23.1332 9.73394 -0.383181 5.58698e-006 -2.09767e-006 -3.00757 8.02889 -4.95144 0.697687 -68.0411 -10.0154 6.24943 -108.665 27.6313 9.66782 -2.64206e-006 3.1651e-006 -4.2912e-006 -30.0282 24.2182 5.46142 4.70774e-007 -1.3054e-006 3 -8.0289 -4.95142 -0.697688 173.446 34.1148 9.26224 180 7.01562e-015 178.989 165.878 48.6045 -173.667 4.71947e-006 -7.32593e-006 0.879177 -89.3122 82.1032 83.3741 8.13388 25.236 -3.48651 -177.602 33.5548 -4.30726 4.54188e-006 -4.67731e-006 -0.921423 -10.6604 -51.115 -5.01872 1.96154e-006 -5.43849e-006 -0.788102 86.8874 82.6219 -83.8262 -8.3565 28.3822 3.58989 
51.7672 80.9895 15.1592 0.691458 9.96192 1.98219 1.54844 -1.892 0.756485 3.11124 0.235639 1.36257 3.09618 1.87913 1.31094 -16.8034 -13.7995 -6.75896 14.2109 8.42377 -7.71993 50.3253 -5.25413 -2.67794 117.951 25.9928 -12.0065 -6.11125e-006 -3.76368e-006 -1.05153e-005 23.1451 10.4429 -0.466547 5.58698e-006 -2.09767e-006 -3.00757 8.02889 -4.95144 0.697687 -67.7441 -10.017 6.24936 -108.911 27.4759 10.524 -2.64206e-006 3.1651e-006 -4.2912e-006 -30.1145 24.8746 5.59579 4.70774e-007 -1.3054e-006 3 -8.0289 -4.95142 -0.697688 173.436 33.9109 9.25269 180 7.01563e-015 178.995 165.865 48.2868 -173.708 4.71947e-006 -7.32593e-006 0.863246 -88.2284 82.0832 82.2643 8.13391 25.236 -3.48652 -177.512 33.3566 -4.37296 4.54188e-006 -4.67731e-006 -0.907471 -10.7433 -50.7985 -5.03511 1.96154e-006 -5.43849e-006 -0.762805 85.788 82.5991 -82.6949 -8.35545 28.3716 3.58891 
51.7743 81.1305 15.1993 0.686125 9.92812 1.99169 1.53736 -1.9012 0.752634 3.08912 0.217051 1.35618 3.07411 1.86056 1.30492 -16.7922 -13.929 -6.76664 14.2111 8.60767 -7.73102 50.1042 -5.28055 -2.68209 118.252 25.7253 -12.7506 -6.11125e-006 -3.76368e-006 -1.05153e-005 23.1565 11.1795 -0.552664 5.58698e-006 -2.09767e-006 -3.00757 8.02889 -4.95144 0.697687 -67.448 -10.0184 6.24918 -109.134 27.3081 11.3918 -2.64206e-006 3.1651e-006 -4.2912e-006 -30.1899 25.5297 5.7243 4.70774e-007 -1.3054e-006 3 -8.0289 -4.95142 -0.697688 173.427 33.6984 9.23785 180 7.01564e-015 179.001 165.847 47.9519 -173.749 4.71947e-006 -7.32593e-006 0.845694 -87.0999 82.0589 81.1073 8.13393 25.236 -3.48653 -177.418 33.1442 -4.43894 4.54188e-006 -4.67731e-006 -0.892241 -10.8353 -50.4574 -5.05438 1.96154e-006 -5.43849e-006 -0.735529 84.6983 82.5724 -81.5679 -8.35369 28.352 3.58751 
